<?xml version="1.0" standalone="no"?>
<!DOCTYPE svg PUBLIC "-//W3C//DTD SVG 20010904//EN"
 "http://www.w3.org/TR/2001/REC-SVG-20010904/DTD/svg10.dtd">
<svg version="1.0" xmlns="http://www.w3.org/2000/svg"
 width="696.000000pt" height="696.000000pt" viewBox="0 0 696.000000 696.000000"
 preserveAspectRatio="xMidYMid meet">

<g transform="translate(0.000000,696.000000) scale(0.100000,-0.100000)"
fill="#000000" stroke="none">
<path d="M3938 6063 c7 -3 16 -2 19 1 4 3 -2 6 -13 5 -11 0 -14 -3 -6 -6z"/>
<path d="M4010 6036 c0 -2 8 -10 18 -17 15 -13 16 -12 3 4 -13 16 -21 21 -21
13z"/>
<path d="M4030 5996 c0 -2 7 -7 16 -10 8 -3 12 -2 9 4 -6 10 -25 14 -25 6z"/>
<path d="M4067 5933 c-2 -5 0 -21 4 -38 7 -29 7 -29 8 8 1 35 -3 46 -12 30z"/>
<path d="M4019 5783 c-13 -16 -12 -17 4 -4 16 13 21 21 13 21 -2 0 -10 -8 -17
-17z"/>
<path d="M3900 5308 c0 -17 32 -78 41 -78 5 0 9 -10 9 -22 0 -12 2 -19 5 -16
9 9 163 -142 211 -206 25 -34 51 -68 57 -76 7 -8 27 -48 46 -88 105 -231 118
-476 36 -699 -108 -290 -284 -467 -577 -576 -129 -49 -347 -59 -508 -23 -95
21 -216 70 -290 118 -87 56 -237 207 -292 293 -67 106 -108 209 -129 328 -13
70 -34 94 -27 29 3 -20 1 -46 -4 -57 -8 -18 -8 -18 -4 2 2 13 1 25 -3 27 -11
7 0 76 13 76 6 0 4 5 -4 10 -8 5 -10 10 -5 10 6 0 10 28 10 68 0 37 5 82 12
101 20 53 15 61 -8 11 -98 -213 -105 -449 -20 -652 93 -222 295 -396 531 -459
70 -19 111 -23 238 -23 83 0 152 -3 152 -7 0 -3 59 -7 130 -7 73 -1 130 3 130
8 0 5 6 7 14 4 23 -9 203 44 292 86 247 115 435 326 523 586 49 146 65 352 37
482 -48 224 -139 397 -282 538 -79 78 -231 184 -264 184 -12 0 -19 4 -16 9 3
5 -8 14 -24 20 -21 7 -30 7 -30 -1z"/>
<path d="M3173 5250 c-156 -36 -346 -147 -455 -268 -81 -91 -188 -303 -188
-373 0 -11 -3 -18 -7 -16 -13 8 -16 -234 -3 -303 59 -339 287 -597 610 -689
98 -29 273 -38 366 -21 385 72 664 366 705 741 21 195 -21 391 -116 545 -127
203 -322 340 -556 389 -95 20 -254 18 -356 -5z m314 -447 c-4 -17 -4 -17 -12
0 -4 9 -4 25 0 35 8 16 8 16 12 0 3 -10 3 -26 0 -35z m-135 -20 c10 -9 18 -20
18 -25 0 -13 -37 9 -44 27 -7 20 3 19 26 -2z m288 9 c0 -5 -9 -17 -20 -27 -22
-20 -26 -14 -10 16 11 19 30 26 30 11z m-96 -34 c34 -15 53 -46 82 -130 15
-44 34 -80 54 -98 40 -37 40 -78 1 -122 -16 -18 -40 -46 -54 -63 -23 -28 -29
-29 -114 -33 l-90 -4 -20 32 c-11 18 -38 42 -59 54 l-39 22 0 83 c0 72 3 85
21 100 13 10 23 33 27 60 6 44 36 86 72 101 30 13 90 12 119 -2z m-219 -118
c-3 -5 -15 -10 -25 -10 -10 0 -22 5 -25 10 -4 6 7 10 25 10 18 0 29 -4 25 -10z
m360 0 c-3 -5 -15 -10 -26 -10 -10 0 -19 5 -19 10 0 6 12 10 26 10 14 0 23 -4
19 -10z m-335 -304 c6 -8 10 -25 8 -38 -2 -18 -10 -24 -35 -26 -28 -3 -33 1
-39 23 -10 41 40 72 66 41z m-121 -20 c28 -15 51 -53 51 -87 0 -11 7 -34 16
-51 15 -29 15 -32 0 -43 -9 -7 -16 -23 -16 -37 0 -17 -8 -28 -24 -36 -16 -7
-26 -21 -28 -39 -3 -27 -4 -28 -75 -31 l-73 -3 0 58 c0 36 -8 77 -21 109 -26
63 -21 94 26 141 27 27 41 33 74 33 23 0 54 -6 70 -14z"/>
<path d="M3401 4721 c-40 -37 -42 -90 -6 -157 14 -26 25 -60 25 -75 0 -21 4
-27 15 -23 11 5 15 23 15 73 0 63 -2 69 -25 79 -27 12 -33 40 -13 60 20 20 37
14 53 -18 18 -35 32 -39 37 -9 2 12 11 27 21 33 15 9 21 7 33 -9 18 -24 14
-37 -13 -50 -18 -8 -22 -19 -25 -77 -2 -38 -1 -73 0 -78 8 -22 20 -7 32 38 6
26 20 61 31 78 23 38 24 65 4 104 -22 42 -53 60 -106 60 -38 0 -53 -6 -78 -29z"/>
<path d="M3416 4661 c-4 -5 3 -15 15 -21 18 -10 20 -9 17 6 -4 20 -23 30 -32
15z"/>
<path d="M3520 4651 c0 -14 5 -19 15 -14 17 6 15 25 -3 31 -7 2 -12 -5 -12
-17z"/>
<path d="M3468 4547 c-5 -72 1 -95 21 -83 17 11 14 143 -3 149 -11 4 -15 -10
-18 -66z"/>
<path d="M3331 4581 c-6 -10 -10 -39 -9 -63 0 -23 0 -47 -2 -53 -6 -25 2 -43
25 -53 49 -23 55 -17 55 51 0 50 -5 70 -25 100 -30 43 -31 43 -44 18z"/>
<path d="M3603 4588 c-20 -24 -43 -98 -43 -138 0 -32 -5 -41 -39 -64 -45 -31
-75 -25 -83 18 -6 30 17 25 25 -6 3 -11 12 -18 19 -16 20 7 21 36 1 41 -15 4
-14 5 4 6 12 0 23 -4 25 -11 5 -15 28 -1 28 18 0 10 -14 14 -55 14 -60 0 -75
-13 -75 -68 0 -37 20 -54 62 -52 18 1 52 2 75 1 35 0 46 5 68 32 14 18 39 47
55 64 17 18 30 36 30 41 0 16 -41 62 -54 62 -7 0 -17 17 -22 37 -8 31 -11 34
-21 21z"/>
<path d="M3313 4323 c-21 -7 -15 -33 7 -33 11 0 20 6 20 14 0 18 -11 25 -27
19z"/>
<path d="M3095 4284 c-34 -36 -37 -98 -9 -141 8 -13 14 -47 14 -78 l0 -56 57
3 c56 3 57 4 58 33 0 23 5 31 21 33 29 4 39 55 28 139 -9 62 -42 93 -99 93
-37 0 -51 -5 -70 -26z"/>
<path d="M3103 3238 c-28 -13 -37 -52 -21 -86 10 -21 21 -28 48 -30 42 -4 69
14 75 49 9 51 -53 91 -102 67z"/>
<path d="M2604 2850 c-11 -4 -27 -19 -36 -32 -38 -59 -291 -637 -296 -676 -4
-38 -1 -45 31 -76 41 -39 74 -48 114 -31 37 16 56 40 83 103 l22 52 122 0 122
0 17 -53 c31 -97 102 -135 175 -92 32 19 62 63 62 90 0 17 -202 516 -260 643
-21 44 -37 65 -55 72 -31 12 -72 12 -101 0z m96 -472 c0 -4 -25 -8 -55 -8 -58
0 -63 4 -41 35 7 11 19 38 26 60 7 22 15 44 18 49 5 9 52 -115 52 -136z"/>
<path d="M3153 2850 c-13 -5 -32 -24 -43 -42 -19 -31 -20 -50 -20 -366 0 -358
2 -375 52 -399 44 -21 59 -23 93 -9 57 24 63 44 67 208 2 82 5 148 8 148 3 0
53 -70 110 -156 58 -86 118 -167 133 -180 51 -43 125 -27 156 33 7 15 11 132
11 366 0 332 -1 345 -20 370 -35 44 -112 48 -161 8 -23 -18 -24 -26 -29 -182
l-5 -164 -112 172 c-130 200 -161 225 -240 193z"/>
<path d="M3890 2838 c-13 -7 -35 -29 -48 -48 l-23 -34 3 -327 c3 -310 4 -328
23 -349 31 -34 81 -50 157 -50 84 0 208 25 261 52 159 81 240 277 192 463 -33
127 -104 212 -223 268 -62 29 -76 32 -192 35 -89 2 -132 -1 -150 -10z m266
-237 c56 -25 87 -71 92 -137 8 -101 -56 -180 -160 -198 l-38 -7 0 181 0 180
33 0 c17 0 50 -9 73 -19z"/>
<path d="M3440 1131 c0 -4 11 -6 25 -3 14 2 25 6 25 8 0 2 -11 4 -25 4 -14 0
-25 -4 -25 -9z"/>
</g>
</svg>
